<?xml version="1.0" standalone="no"?><!DOCTYPE svg PUBLIC "-//W3C//DTD SVG 1.1//EN" "http://www.w3.org/Graphics/SVG/1.1/DTD/svg11.dtd"><svg t="1635408730854" class="icon" viewBox="0 0 1024 1024" version="1.1" xmlns="http://www.w3.org/2000/svg" p-id="6040" xmlns:xlink="http://www.w3.org/1999/xlink" width="128" height="128"><defs><style type="text/css"></style></defs><path d="M497 90c246.319 0 446 199.681 446 446S743.319 982 497 982 51 782.319 51 536 250.681 90 497 90z m175.534 270.444c-11.672-11.671-30.595-11.671-42.266 0L496.156 494.556l-133.302-133.3-0.505-0.492c-11.706-11.176-30.257-11.012-41.761 0.493-11.672 11.671-11.672 30.595 0 42.266L453.89 536.822l-132.44 132.44-0.494 0.505c-11.176 11.706-11.012 30.257 0.493 41.762 11.672 11.671 30.595 11.671 42.266 0l132.44-132.441 133.258 133.26 0.505 0.494c11.706 11.176 30.256 11.011 41.761-0.494 11.672-11.671 11.672-30.594 0-42.266l-133.257-133.26L672.534 402.71l0.493-0.504c11.176-11.706 11.011-30.257-0.493-41.762z" fill="#bfbfbf" p-id="6041"></path></svg>