<?xml version="1.0" standalone="no"?><!DOCTYPE svg PUBLIC "-//W3C//DTD SVG 1.1//EN" "http://www.w3.org/Graphics/SVG/1.1/DTD/svg11.dtd"><svg t="1635669325923" class="icon" viewBox="0 0 1024 1024" version="1.1" xmlns="http://www.w3.org/2000/svg" p-id="5100" xmlns:xlink="http://www.w3.org/1999/xlink" width="128" height="128"><defs><style type="text/css"></style></defs><path d="M515 67c147.46 0 267 119.54 267 267 0 98.16-52.971 183.95-131.888 230.34v-0.018C808.66 621.577 922 773.57 922 952.072c0 16.53-13.38 29.928-29.885 29.928-16.27 0-29.503-13.019-29.878-29.22l-0.008-0.707c0-187.435-146.204-340.674-330.64-351.596l-0.001 0.016a271.11 271.11 0 0 1-37.063-0.266v-0.016c-184.92 8.278-332.687 159.54-335.707 346.037l-0.047 5.825c0 16.528-13.38 29.927-29.886 29.927C112.38 982 99 968.601 99 952.073c0-180.619 116.044-334.096 277.545-389.747l0.001 0.017C299.48 515.513 248 430.769 248 334c0-147.46 119.54-267 267-267z" fill="#333333" p-id="5101"></path></svg>