<?xml version="1.0" standalone="no"?><!DOCTYPE svg PUBLIC "-//W3C//DTD SVG 1.1//EN" "http://www.w3.org/Graphics/SVG/1.1/DTD/svg11.dtd"><svg t="1635676340678" class="icon" viewBox="0 0 1024 1024" version="1.1" xmlns="http://www.w3.org/2000/svg" p-id="6271" xmlns:xlink="http://www.w3.org/1999/xlink" width="128" height="128"><defs><style type="text/css"></style></defs><path d="M488.517 48.277a454.743 454.743 0 0 1 33.264 2.384c15.114 1.641 26.913 13.783 28.183 28.927 1.766 21.478 10.468 41.176 25.21 56.956 34.998 37.567 92.914 40.711 131.752 7.154 11.46-9.911 28.432-10.314 40.325-0.914 26.728 21.014 51.04 45.125 72.317 71.667 9.509 11.846 9.26 28.756-0.558 40.34-13.906 16.43-21.68 36.515-22.423 58.101-1.766 51.35 36.918 94.493 88.113 98.21 15.176 1.114 27.41 12.806 29.205 27.888 2.664 22.454 3.624 45.497 2.819 68.477-0.403 11.243-1.177 22.346-2.385 33.31-1.64 15.082-13.782 26.898-28.896 28.152-21.463 1.781-41.192 10.515-56.987 25.242-37.568 35.028-40.696 92.898-7.155 131.72 9.911 11.49 10.314 28.4 0.93 40.34-21.03 26.712-45.125 51.055-71.7 72.333-11.861 9.493-28.74 9.26-40.324-0.558-16.415-13.906-36.483-21.649-58.102-22.407-52.464-2.26-94.493 36.917-98.209 88.097-1.084 15.144-12.791 27.394-27.874 29.19A449.553 449.553 0 0 1 473.155 936a437.16 437.16 0 0 1-15.64-0.264 451.71 451.71 0 0 1-33.264-2.4c-15.114-1.658-26.914-13.767-28.153-28.881-1.796-21.495-10.53-41.207-25.272-56.987-34.998-37.568-92.914-40.727-131.69-7.17-11.46 9.911-28.338 10.314-40.354 0.944-26.698-20.983-51.041-45.11-72.35-71.682-9.476-11.846-9.259-28.74 0.527-40.324 13.938-16.46 21.71-36.546 22.454-58.117 1.766-51.365-36.918-94.508-88.082-98.209-15.145-1.1-27.41-12.807-29.206-27.889a447.193 447.193 0 0 1-2.849-68.492c0.403-11.243 1.177-22.33 2.385-33.294 1.64-15.114 13.782-26.914 28.926-28.168 21.463-1.766 41.13-10.5 56.926-25.242 37.6-35.028 40.727-92.882 7.186-131.72-9.911-11.49-10.314-28.416-0.93-40.355 21.06-26.728 45.157-51.07 71.7-72.317 11.8-9.508 28.71-9.26 40.324 0.542 16.445 13.921 36.545 21.68 58.133 22.438 52.373 2.416 94.493-36.932 98.21-88.112 1.084-15.144 12.79-27.379 27.873-29.19a448.724 448.724 0 0 1 68.508-2.834zM473 301.713c-104.931 0-190.287 85.356-190.287 190.287 0 104.93 85.356 190.286 190.287 190.286 104.93 0 190.286-85.356 190.286-190.286S577.93 301.713 473 301.713z m0 63.429c-69.965 0-126.859 56.909-126.859 126.858 0 69.948 56.894 126.857 126.859 126.857 69.964 0 126.858-56.909 126.858-126.857 0-69.95-56.894-126.858-126.858-126.858z" fill="#333333" p-id="6272"></path></svg>