<?xml version="1.0" standalone="no"?><!DOCTYPE svg PUBLIC "-//W3C//DTD SVG 1.1//EN" "http://www.w3.org/Graphics/SVG/1.1/DTD/svg11.dtd"><svg t="1635676285180" class="icon" viewBox="0 0 1024 1024" version="1.1" xmlns="http://www.w3.org/2000/svg" p-id="5755" xmlns:xlink="http://www.w3.org/1999/xlink" width="128" height="128"><defs><style type="text/css"></style></defs><path d="M838.957 151.955c-49.585-46.375-127.16-45.352-175.525 2.665L489.546 327.256 215.494 254.03c-34.697-9.272-71.698 1.005-96.65 26.845L85.06 315.856c-29.112 30.146-28.279 78.18 1.86 107.284l1.083 1.026a75.848 75.848 0 0 0 17.027 11.921l189.174 96.9-55.622 57.598-84.548-12.112a41.393 41.393 0 0 0-35.645 12.222L67.041 643.87c-24.7 25.578-23.994 66.334 1.579 91.029l1.145 1.079a64.355 64.355 0 0 0 4.832 4.026l109.2 82.28 83.574 105.852c22.03 27.902 62.512 32.657 90.418 10.62a64.399 64.399 0 0 0 7.217-6.651l52.208-56.06 0.598-0.656a41.393 41.393 0 0 0 9.852-34.877l-14.64-81.441 57.416-59.063 102.39 186.95c20.127 36.75 66.237 50.217 102.99 30.082a75.897 75.897 0 0 0 18.129-13.84l37.414-38.743 0.803-0.832c24.842-26.34 33.329-64.188 22.035-98.647l-85.875-262.023 173.76-174.257c47.97-48.107 47.867-125.983-0.228-173.942-0.462-0.468-0.934-0.924-1.407-1.38l-1.494-1.42z" fill="#999999" p-id="5756"></path></svg>